<svg xmlns="http://www.w3.org/2000/svg" viewBox="0 0 50 50" width="100px" height="100px">
    <path d="M 13.148438 4 C 8.1034375 4 4 8.1034375 4 13.148438 L 4 36.851562 C 4 41.896563 8.1034375 46 13.148438 46 L 36.849609 46 C 41.895609 46 46 41.896563 46 36.851562 L 46 13.148438 C 46 8.1034375 41.896563 4 36.851562 4 L 13.148438 4 z M 19 17 L 31 17 C 35.418 17 39 20.582 39 25 C 39 29.418 35.418 33 31 33 L 19 33 C 14.582 33 11 29.418 11 25 C 11 20.582 14.582 17 19 17 z M 19 22 C 17.343 22 16 23.343 16 25 C 16 26.657 17.343 28 19 28 L 31 28 C 32.657 28 34 26.657 34 25 C 34 23.343 32.657 22 31 22 L 19 22 z"/>
</svg>